<?xml version="1.0" encoding="UTF-8"?>
<!DOCTYPE svg PUBLIC "-//W3C//DTD SVG 1.1//EN" "http://www.w3.org/Graphics/SVG/1.1/DTD/svg11.dtd">
<!-- Creator: CorelDRAW -->
<svg xmlns="http://www.w3.org/2000/svg" xml:space="preserve" width="177.126mm" height="177.126mm" version="1.1" style="shape-rendering:geometricPrecision; text-rendering:geometricPrecision; image-rendering:optimizeQuality; fill-rule:evenodd; clip-rule:evenodd"
viewBox="0 0 7700.42 7700.42"
 xmlns:xlink="http://www.w3.org/1999/xlink"
 xmlns:xodm="http://www.corel.com/coreldraw/odm/2003">
 <defs>
  <style type="text/css">
   <![CDATA[
    .fil1 {fill:#1E6E44}
    .fil2 {fill:#201E1E}
    .fil0 {fill:#F7E9CC}
    .fil3 {fill:#F7E9CC;fill-rule:nonzero}
   ]]>
  </style>
 </defs>
 <g id="Capa_x0020_1">
  <metadata id="CorelCorpID_0Corel-Layer"/>
  <g id="_2234782409184">
   <circle class="fil0" cx="3850.21" cy="3850.21" r="3850.21"/>
   <path class="fil1" d="M3850.21 278.44c1972.63,0 3571.76,1599.13 3571.76,3571.77 0,1972.63 -1599.13,3571.76 -3571.76,3571.76 -1972.63,0 -3571.77,-1599.13 -3571.77,-3571.76 0,-1972.64 1599.13,-3571.77 3571.77,-3571.77zm0 904.94c1472.85,0 2666.82,1193.98 2666.82,2666.83 0,1472.85 -1193.98,2666.82 -2666.82,2666.82 -1472.85,0 -2666.83,-1193.98 -2666.83,-2666.82 0,-1472.85 1193.98,-2666.83 2666.83,-2666.83zm-2415.35 2300.57l4830.69 0 0 1017.81 -4830.69 0 0 -1017.81zm2415.34 2794.02l2025.31 -1699.44 447.36 0c-314.26,1068.7 -1302.23,1849 -2472.67,1849 -1170.44,0 -2158.41,-780.3 -2472.67,-1849l447.36 0 2025.31 1699.44zm0 -5005.09c402.08,0 782.63,92.12 1121.76,256.33l-1121.77 941.27 -1121.76 -941.27c339.14,-164.21 719.69,-256.33 1121.77,-256.33zm1948.65 890.45c225.74,260.53 399.95,566.86 507.17,903.1l-406.1 340.76 -1583.44 0 1482.37 -1243.86zm-1294.87 2415.2l-653.78 548.58 -653.78 -548.58 1307.56 0zm-2703.5 -1171.34l-406.09 -340.75c107.22,-336.23 281.46,-642.57 507.16,-903.11l1482.37 1243.86 -1583.44 0z"/>
   <path class="fil2" d="M3604.5 5079.39c-46.71,-3.59 -76.79,15.42 -89.07,58.57l-1.84 138.7c-2.61,34.49 10.97,40.97 37.91,45.9l150.78 35.08c51.78,11.47 73.32,33.98 73.45,89.74l-13.55 482.26c-5.66,59.56 -32.64,97.79 -84.32,111.31l-392.93 62.67c-59.29,10.39 -66.06,20.15 -64.24,73.73 424.6,0 849.19,0 1273.79,0 1.82,-53.58 -4.95,-63.35 -64.24,-73.73l-392.93 -62.67c-51.68,-13.52 -78.66,-51.75 -84.32,-111.31l-13.55 -482.26c0.13,-55.75 21.67,-78.26 73.45,-89.74l150.78 -35.08c26.94,-4.92 40.52,-11.41 37.91,-45.9l-1.84 -138.7c-12.28,-43.15 -42.36,-62.16 -89.07,-58.57l-506.16 0zm212.52 -2808.94c104.39,-110.19 -205.89,-133.57 -170.63,-316.88 -115.45,-126.47 5.51,-167.8 253.6,85.02 70.98,22.22 107.99,-9.42 84.73,-148.74 -0.93,-49.9 -60.59,-21.83 -36.25,-110.84 -54.61,-84.2 -108.47,-134.3 -202.56,-222.48 -41.57,-80.01 12.32,-84.82 43.92,-14.34 78.72,90.44 120.98,100.89 105.37,-0.95 0.2,-22.34 -5.03,-50.35 5.05,-81.08 16.21,-49.1 49.98,-52.2 44.89,-5.77 -1.19,53.03 -17.07,131.92 39.65,165.84 32.1,1.39 212.68,-137.72 307.5,-119.18 55.4,-2.23 74.98,-50.15 127.81,-51.26 34.41,-18.67 89.71,-101.02 115.56,-49.99 -0.52,46.94 -47.08,25.33 -59.08,62.01 -24.75,40.67 -42.29,46.5 -53.41,56.05 47.91,51.96 116.56,-32.24 112.01,41.42 -75.64,26.41 -117.15,21.08 -125.9,8.34 -54.08,-31.73 -66.71,38.89 -133.87,24.49 -80.53,-14.78 -150.86,28.85 -215.36,105.91 -10.33,23.96 -2.43,31.68 -30.98,71.89 -9.66,24.54 -11.73,51.81 21.11,73.63 22.58,52.82 23.52,95.62 17.75,148.45 19.37,22.39 52.94,23.08 96.48,8.51 96.88,-106.89 240.44,-189.54 424.69,-253.14 59.8,-20.41 92.77,-112.31 139.17,-168.47 40.03,23.58 37.2,79.03 -10.1,167.55 228.98,-104.16 234.47,-83.22 176.84,-26.96 -246.1,97.66 -246.1,151.49 -297.34,137.11 -122.12,0.6 -236.06,45.04 -338.78,149.56 -12.03,59.46 41.2,30.25 61.26,47.09 36.08,3.51 135.53,161.24 251.55,164.85 49.16,9.46 230.03,131.56 69.3,189.99 -269.53,-23.78 -487.72,-3.86 -524.81,179.79 -8.63,35.15 4.26,50.35 74.95,47.94 163.29,-1.09 221.24,66.33 142.9,222.4l-23.94 150.1c7.74,34.38 -70.67,20.69 4.77,90.77 48.43,34.08 28.97,69.79 -41.57,107.5 -23.79,10.4 -38.24,23.18 -42.17,38.65 -0.63,42.1 -41.66,89.89 -25.81,102.07 54.74,55.25 -51.53,54.63 -103.6,72.59l-544.66 0c21.52,-27.85 46.85,-48.4 85.47,-52.18 34.84,-22.6 32.46,-176.22 -7.4,-189.93 -47.36,-10.97 -5.71,-60.15 -46.25,-77.82 -53.05,-24.07 -74.37,-55.51 -74.85,-170.38 -4.61,-105.64 30.47,-165.51 103.69,-181.4 40.67,-11.47 57.39,-38.76 31.96,-84.53l0.01 -0.01c7.46,-140.62 68.72,-242.39 167.32,-393.19z"/>
   <path class="fil3" d="M910.19 2602.81l-31.06 21.87 29.13 -30.94 50.17 17.21 -56.63 165.07 -50.17 -17.21 -3.87 -37.78 16.26 1.65 -112.06 38.95 7.09 -23.93 68.88 103.26 -23.13 -2.89 29.78 -29.6 50.17 17.22 -46.3 134.97 -50.17 -17.21 -4.66 -41.98 13.63 33.84 -104.08 -164.13 24.74 9.61 -180 58.81 22.12 -17.08 -23.4 28.98 -50.17 -17.22 53.09 -162.92 50.17 17.21 4.55 35.77 -10.83 -7.64 103.96 -33.31 -12.59 20.35 -57.63 -85.38 15.77 -0.2 -25.74 27.62 -50.17 -17.21 43.28 -134.32 50.17 17.21 8.85 42.85 -12.98 -30.81 99.13 154.02 -23.05 -11.27 187.76 -63.45zm3427.84 1648.02l-6.07 -70.12c15.37,-6.12 31.55,-11.51 48.54,-16.19 16.99,-4.67 34.98,-7.01 54,-7.01 24.67,0 47.02,4.4 67.04,13.22 20.02,8.81 36.11,21.85 48.23,39.11 12.14,17.26 18.21,38.66 18.21,64.19 0,28.41 -7.48,52.6 -22.45,72.55 -14.97,19.96 -35.19,35.15 -60.67,45.58 -25.48,10.43 -54,15.64 -85.55,15.64 -31.56,0 -60.58,-5.84 -87.07,-17.53 -26.49,-11.69 -47.83,-30.57 -64.01,-56.64 -16.18,-26.07 -24.27,-60.69 -24.27,-103.84 0,-46.39 9.6,-86.04 28.81,-118.95 19.22,-32.91 45.81,-58.17 79.79,-75.79 33.98,-17.62 73.01,-26.43 117.1,-26.43 26.7,0 54.2,3.42 82.51,10.25l-7.89 78.21c-10.52,-1.8 -20.63,-3.06 -30.34,-3.77 -9.71,-0.72 -18.61,-1.08 -26.69,-1.08 -29.13,0 -52.08,5.03 -68.87,15.11 -16.79,10.07 -28.82,25.53 -36.1,46.39 -7.28,20.85 -10.93,47.65 -10.93,80.37 0,30.57 3.44,53.23 10.32,67.97 6.87,14.74 19.21,22.12 37.01,22.12 12.94,0 23.15,-3.69 30.64,-11.06 7.48,-7.37 11.22,-18.79 11.22,-34.25 0,-10.07 -2.02,-18.43 -6.06,-25.08 -4.05,-6.65 -9.61,-11.78 -16.69,-15.37 -7.08,-3.6 -15.47,-5.4 -25.18,-5.4 -8.49,0 -17.39,1.44 -26.7,4.32 -9.3,2.88 -18.61,7.37 -27.91,13.49zm-461.74 148.88l0 -91.7c43.69,-28.41 79.08,-52.5 106.18,-72.28 27.1,-19.78 46.93,-37.58 59.46,-53.4 12.54,-15.82 18.81,-31.83 18.81,-48.01 0,-15.11 -4.66,-26.35 -13.96,-33.71 -9.31,-7.37 -21.65,-11.06 -37.01,-11.06 -7.69,0 -15.77,0.9 -24.27,2.7 -8.49,1.8 -17.39,4.14 -26.7,7.01l12.75 -17.26 -12.75 55.56 -73.41 0 -7.89 -108.96c27.51,-6.47 54.2,-11.42 80.09,-14.83 25.88,-3.42 50.36,-5.13 73.41,-5.13 31.55,0 59.36,3.6 83.43,10.79 24.06,7.19 42.87,18.88 56.43,35.06 13.55,16.18 20.33,37.58 20.33,64.19 0,27.69 -7.19,53.13 -21.54,76.33 -14.36,23.19 -34.48,45.4 -60.37,66.62 -25.88,21.22 -56.22,42.79 -91.01,64.73l0.6 -11.87 178.99 0 0 85.23 -321.57 0zm-209.32 8.09c-42.07,0 -75.84,-7.37 -101.33,-22.12 -25.48,-14.75 -43.79,-36.68 -54.91,-65.81 -11.13,-29.13 -16.69,-65.27 -16.69,-108.42 0,-44.23 5.66,-81.45 16.99,-111.66 11.33,-30.21 30.14,-52.96 56.43,-68.24 26.29,-15.28 61.48,-22.92 105.57,-22.92 44.9,0 79.68,7.37 104.36,22.12 24.68,14.75 41.87,36.59 51.57,65.54 9.71,28.95 14.56,64.64 14.56,107.08 0,44.23 -5.86,81.54 -17.59,111.93 -11.73,30.39 -30.44,53.4 -56.13,69.05 -25.68,15.64 -59.96,23.46 -102.84,23.46zm1.82 -82.53c14.16,0 24.48,-4.32 30.94,-12.95 6.47,-8.63 10.62,-21.85 12.44,-39.65 1.82,-17.8 2.73,-40 2.73,-66.62 0,-25.89 -0.8,-47.29 -2.43,-64.19 -1.62,-16.9 -5.66,-29.58 -12.13,-38.03 -6.47,-8.45 -16.79,-12.68 -30.94,-12.68 -14.16,0 -24.68,4.41 -31.55,13.22 -6.88,8.81 -11.23,21.85 -13.05,39.11 -1.82,17.26 -2.73,39.02 -2.73,65.27 0,25.89 0.91,47.47 2.73,64.73 1.82,17.26 6.07,30.21 12.74,38.84 6.67,8.63 17.09,12.95 31.24,12.95zm-526.65 74.44l0 -91.7c43.69,-28.41 79.08,-52.5 106.18,-72.28 27.1,-19.78 46.93,-37.58 59.46,-53.4 12.54,-15.82 18.81,-31.83 18.81,-48.01 0,-15.11 -4.66,-26.35 -13.96,-33.71 -9.31,-7.37 -21.65,-11.06 -37.01,-11.06 -7.69,0 -15.77,0.9 -24.27,2.7 -8.49,1.8 -17.39,4.14 -26.7,7.01l12.74 -17.26 -12.74 55.56 -73.42 0 -7.89 -108.96c27.51,-6.47 54.2,-11.42 80.09,-14.83 25.88,-3.42 50.36,-5.13 73.41,-5.13 31.55,0 59.36,3.6 83.43,10.79 24.06,7.19 42.87,18.88 56.43,35.06 13.55,16.18 20.33,37.58 20.33,64.19 0,27.69 -7.19,53.13 -21.54,76.33 -14.36,23.19 -34.48,45.4 -60.37,66.62 -25.88,21.22 -56.22,42.79 -91.01,64.73l0.6 -11.87 178.99 0 0 85.23 -321.57 0zm2428.17 -452.42c-42.06,0 -77.56,-7.46 -106.48,-22.38 -28.92,-14.92 -50.76,-36.86 -65.52,-65.81 -14.77,-28.95 -22.15,-64.1 -22.15,-105.46 0,-33.8 4.75,-63.56 14.26,-89.27 9.5,-25.71 23.36,-47.2 41.56,-64.46 18.21,-17.26 40.15,-30.21 65.83,-38.84 25.69,-8.63 54.91,-12.95 87.67,-12.95 32.77,0 61.59,4.32 86.47,12.95 24.88,8.63 45.7,21.13 62.49,37.49 16.79,16.36 29.53,36.41 38.22,60.15 8.7,23.74 13.05,50.71 13.05,80.91 0,42.44 -8.59,79.21 -25.79,110.32 -17.19,31.11 -41.76,55.11 -73.71,72.01 -31.96,16.9 -70.58,25.35 -115.89,25.35zm9.11 -83.61c15.37,0 28.41,-3.24 39.13,-9.71 10.72,-6.47 19.02,-18.34 24.88,-35.6 5.87,-17.26 8.8,-42.07 8.8,-74.44 0,-29.13 -2.53,-51.87 -7.59,-68.24 -5.06,-16.36 -12.84,-27.78 -23.36,-34.25 -10.52,-6.47 -24.27,-9.71 -41.26,-9.71 -15.37,0 -28.31,3.15 -38.83,9.44 -10.52,6.29 -18.4,17.89 -23.67,34.79 -5.26,16.9 -7.89,41.54 -7.89,73.9 0,28.41 2.33,50.89 6.98,67.43 4.66,16.54 12.03,28.41 22.15,35.6 10.11,7.19 23.66,10.79 40.66,10.79zm-290.03 -56.64l72.81 0 0 132.16 -318.54 0 0 -53.94 49.14 -17.26 -12.74 19.96 0 -277.8 12.74 19.96 -49.14 -17.26 0 -53.94 199.01 -2.7 0 53.94 -49.75 19.96 11.53 -19.96 0 267.02 -18.2 -16.19 102.54 0 -15.77 16.72 16.38 -70.67zm-342.2 0l72.81 0 0 132.16 -318.54 0 0 -53.94 49.14 -17.26 -12.74 19.96 0 -277.8 12.74 19.96 -49.14 -17.26 0 -53.94 199.01 -2.7 0 53.94 -49.75 19.96 11.53 -19.96 0 267.02 -18.2 -16.19 102.53 0 -15.77 16.72 16.38 -70.67zm-274.85 -196.89l-47.93 20.5 11.53 -15.1 0 267.02 -11.53 -14.57 47.93 17.26 0 53.94 -197.19 0 0 -53.94 46.72 -16.72 -10.31 14.02 0 -267.02 14.56 15.64 -50.97 -18.34 0 -53.94 197.19 -2.7 0 53.94zm-430.78 44.77c0,7.55 3.84,13.93 11.53,19.15 7.69,5.21 17.8,9.89 30.34,14.02 12.54,4.13 26.4,8.36 41.57,12.68 15.17,4.31 30.23,9.53 45.2,15.64 14.96,6.11 28.72,13.76 41.26,22.92 12.54,9.17 22.65,20.59 30.34,34.25 7.69,13.67 11.53,30.21 11.53,49.63 0,28.77 -8.39,52.33 -25.18,70.66 -16.79,18.34 -39.24,31.92 -67.35,40.73 -28.11,8.81 -59.16,13.22 -93.13,13.22 -23.06,0 -46.62,-1.89 -70.68,-5.66 -24.07,-3.77 -47.83,-9.44 -71.3,-16.99l3.04 -115.98 70.98 0 15.78 62.03 -10.92 -16.72c10.11,4.32 21.23,7.64 33.37,9.98 12.14,2.34 23.87,3.5 35.19,3.5 10.92,0 20.83,-1.08 29.73,-3.23 8.89,-2.16 15.97,-5.49 21.23,-9.98 5.26,-4.5 7.89,-10.16 7.89,-16.99 0,-8.63 -3.74,-15.64 -11.23,-21.04 -7.48,-5.4 -17.49,-10.16 -30.03,-14.29 -12.54,-4.14 -26.29,-8.18 -41.26,-12.14 -14.97,-3.96 -29.94,-8.81 -44.9,-14.56 -14.97,-5.76 -28.72,-13.13 -41.26,-22.12 -12.54,-8.99 -22.55,-20.23 -30.03,-33.71 -7.48,-13.49 -11.22,-30.3 -11.22,-50.43 0,-27.69 7.38,-50.43 22.15,-68.24 14.76,-17.8 34.78,-31.11 60.07,-39.92 25.28,-8.81 53.69,-13.22 85.24,-13.22 22.65,0 46.52,2.07 71.59,6.2 25.08,4.13 50.16,10.34 75.24,18.61l-7.89 105.19 -72.81 0 -16.39 -52.86 12.13 10.25c-8.49,-2.52 -17.29,-4.4 -26.39,-5.66 -9.11,-1.26 -18.31,-1.89 -27.61,-1.89 -10.11,0 -19.42,0.9 -27.91,2.7 -8.49,1.8 -15.27,4.68 -20.32,8.63 -5.06,3.95 -7.58,9.17 -7.58,15.64zm-369.51 292.37c-42.06,0 -77.56,-7.46 -106.48,-22.38 -28.92,-14.92 -50.76,-36.86 -65.52,-65.81 -14.77,-28.95 -22.15,-64.1 -22.15,-105.46 0,-33.8 4.75,-63.56 14.26,-89.27 9.5,-25.71 23.36,-47.2 41.56,-64.46 18.21,-17.26 40.15,-30.21 65.83,-38.84 25.69,-8.63 54.91,-12.95 87.67,-12.95 32.77,0 61.59,4.32 86.47,12.95 24.88,8.63 45.7,21.13 62.49,37.49 16.79,16.36 29.53,36.41 38.22,60.15 8.7,23.74 13.05,50.71 13.05,80.91 0,42.44 -8.59,79.21 -25.79,110.32 -17.19,31.11 -41.76,55.11 -73.71,72.01 -31.96,16.9 -70.59,25.35 -115.89,25.35zm9.11 -83.61c15.37,0 28.41,-3.24 39.13,-9.71 10.72,-6.47 19.01,-18.34 24.88,-35.6 5.87,-17.26 8.8,-42.07 8.8,-74.44 0,-29.13 -2.53,-51.87 -7.59,-68.24 -5.06,-16.36 -12.84,-27.78 -23.36,-34.25 -10.52,-6.47 -24.27,-9.71 -41.26,-9.71 -15.37,0 -28.32,3.15 -38.83,9.44 -10.52,6.29 -18.4,17.89 -23.67,34.79 -5.26,16.9 -7.89,41.54 -7.89,73.9 0,28.41 2.33,50.89 6.98,67.43 4.66,16.54 12.03,28.41 22.15,35.6 10.11,7.19 23.66,10.79 40.66,10.79zm-231.78 -253.53l-52.18 22.12 15.78 -27.51 0 283.2 -15.78 -21.04 52.18 18.34 0 53.94 -186.87 0 0 -53.94 55.82 -18.88 -19.42 21.58 0 -216.31 18.81 0.54 -84.34 168.3 -75.85 2.7 -80.09 -171.54 17.6 0 0 216.31 -12.14 -19.42 49.15 16.72 0 53.94 -172.31 0 0 -53.94 52.18 -18.34 -15.77 21.04 0 -283.2 15.77 26.43 -52.18 -18.34 0 -53.94 188.7 -2.7 68.56 176.39 -13.96 0 74.02 -173.69 172.31 -2.7 0 53.94zm-900.4 329.05l0 -53.94 50.96 -17.8 -14.56 20.5 0 -277.27 21.24 22.12 -57.64 -19.96 0 -53.94 165.64 -2.7 47.32 0c51.37,0 90.1,9.53 116.19,28.59 26.09,19.06 39.14,46.39 39.14,82 0,30.93 -10.42,56.73 -31.24,77.41 -20.83,20.68 -54.5,33.71 -101.02,39.11l1.21 -12.41c15.77,-0.36 28.82,0.99 39.13,4.05 10.32,3.06 18.81,7.46 25.49,13.22 6.67,5.75 12.43,12.59 17.29,20.5l45.5 74.44 -33.98 -18.88 59.46 21.04 0 53.94 -123.77 0 -54 -101.41c-6.47,-12.59 -11.53,-21.94 -15.17,-28.05 -3.64,-6.11 -7.79,-10.07 -12.44,-11.87 -4.65,-1.8 -12.03,-2.52 -22.15,-2.16l-21.23 0.54 19.42 -14.56 0 106.26 -15.17 -21.04 51.57 18.34 0 53.94 -197.19 0zm160.79 -191.5l-19.42 -26.97 42.47 0c20.22,0 34.99,-3.87 44.29,-11.6 9.31,-7.73 13.96,-19.33 13.96,-34.79 0,-12.23 -3.54,-22.03 -10.62,-29.4 -7.08,-7.37 -18.51,-11.06 -34.28,-11.06l-55.82 0 19.42 -16.19 0 130.01zm-268.18 77.68l72.81 0 -1.21 113.82 -325.82 0 0 -53.94 51.57 -18.34 -15.17 21.04 0 -277.8 14.56 20.5 -50.96 -17.8 0 -53.94 157.75 -2.7 162 0 0 108.96 -72.81 0 -13.95 -44.77 21.85 14.02 -112.25 0 18.2 -16.19 0 105.19 -18.2 -16.18 126.81 0 0 75.52 -126.81 0 18.2 -18.88 0 113.28 -18.2 -16.19 119.52 0 -22.45 16.19 14.56 -51.79zm-726.87 113.82l0 -53.94 51.57 -18.34 -15.17 21.04 0 -277.8 19.41 22.12 -55.82 -19.42 0 -53.94 197.19 -2.7 0 53.94 -54 22.12 17.59 -22.65 0 111.12 -18.2 -16.19 158.36 0 -18.21 16.19 0 -110.59 18.21 22.12 -54.61 -19.42 0 -53.94 197.19 -2.7 0 53.94 -52.17 21.58 15.77 -22.12 0 278.34 -15.77 -21.04 52.17 18.34 0 53.94 -197.19 0 0 -53.94 50.97 -18.34 -14.56 21.04 0 -121.37 18.21 16.19 -158.36 0 18.2 -16.19 0 121.37 -14.56 -21.04 50.97 18.34 0 53.94 -197.19 0zm-638.64 2332.31l31.74 -33.31 38.45 15.67 -20.05 5.04 163.15 -171.21 -1.35 24.77 -19.9 -42.48 31.74 -33.31 92.51 84.99 25.98 24.76c28.21,26.88 43.86,53.02 46.97,78.44 3.11,25.42 -5.81,49.12 -26.76,71.1 -18.2,19.1 -39.1,29.58 -62.71,31.45 -23.6,1.87 -49.76,-7.69 -78.47,-28.7l7.96 -7.03c8.87,8.03 15.24,15.69 19.1,22.97 3.86,7.28 5.93,14.45 6.21,21.49 0.28,7.05 -0.58,14.28 -2.56,21.7l-18.82 69.77 -7.54 -29.43 20.26 44.1 -31.74 33.31 -67.95 -64.75 30.03 -90.87c3.85,-11.16 6.58,-19.58 8.18,-25.26 1.6,-5.68 1.65,-10.29 0.15,-13.83 -1.5,-3.54 -5.13,-7.85 -10.89,-12.92l-11.98 -10.77 19.23 1.17 -62.53 65.62 4.05 -20.93 17.52 38.31 -31.74 33.31 -108.25 -103.16zm-132.26 -1011.23l39.8 -23.09 34.94 28.14 -21.92 -1.11 74.02 -42.95 -21.95 21.78 106.68 -170.94 -3.86 20.86 -2.73 -34.05 39.8 -23.09 71.26 118.24 -39.8 23.09 -28.33 -21.33 16.99 -1.88 -76.91 105.8 -8.78 -15.12 127.14 -10.99 -10.3 13.42 -3.79 -37.7 39.8 -23.09 65.25 107.89 -39.8 23.09 -27.87 -20.54 19.85 7.63 -204.42 7.97 29.1 -9.44 -74.02 42.95 9.68 -19.98 7.08 44.3 -39.8 23.09 -77.12 -132.92zm172.68 287.8l37.67 -26.41 32.92 21.31 -15.19 -0.03 190.26 -133.37 -7.56 20.47 -10.17 -41.76 37.67 -26.41 70.55 96.64 69.72 99.46 -76.97 54.52 -31.69 -45.21 23.95 -29.15 2.09 18.2 -48.33 -68.95 19.22 3.38 -72.34 50.71 2.25 -18.43 55.46 79.12 -54.63 38.3 -55.46 -79.12 19.23 3.38 -79.12 55.46 4.1 -15.8 13.82 45.37 -37.67 26.41 -89.8 -128.09zm376.4 316.55l36.87 41.1 -72.88 64.15 -165 -183.9 34.25 -30.73 37.76 18.66 -21.04 3.42 176.37 -158.24 -5.64 19.89 -14.51 -38.91 34.24 -30.73 81.6 87.51 82.04 91.43 -69.18 62.07 -36.87 -41.1 21.36 -33.38 2.16 20.32 -56.84 -63.35 19.49 1.06 -66.79 59.92 1.06 -19.49 64.22 71.58 -47.94 43.01 -64.22 -71.57 21.21 -0.48 -71.92 64.52 1.06 -19.49 60.53 67.46 -21.64 -3.45 40.25 -21.28zm-1.59 140.22l31.62 -33.42 38.51 15.54 -20.04 5.11 162.55 -171.77 -1.27 24.77 -20.05 -42.41 31.62 -33.42 92.81 84.67 26.06 24.67c28.3,26.78 44.04,52.86 47.23,78.27 3.2,25.41 -5.64,49.14 -26.51,71.19 -18.13,19.16 -39,29.71 -62.59,31.67 -23.6,1.95 -49.79,-7.52 -78.57,-28.43l7.94 -7.05c8.89,8 15.29,15.63 19.18,22.91 3.89,7.27 5.99,14.42 6.29,21.47 0.3,7.04 -0.53,14.28 -2.49,21.71l-18.58 69.84 -7.65 -29.41 20.42 44.03 -31.63 33.42 -68.17 -64.52 29.71 -90.97c3.81,-11.17 6.51,-19.6 8.09,-25.28 1.58,-5.68 1.61,-10.29 0.1,-13.83 -1.5,-3.54 -5.15,-7.83 -10.93,-12.89l-12.01 -10.73 19.23 1.1 -62.3 65.83 3.98 -20.94 17.65 38.25 -31.62 33.41 -108.61 -102.78zm200.83 -34.83l5.12 -26.83 23.39 22.14c11.14,10.54 21.54,15.84 31.2,15.9 9.66,0.06 19.02,-4.7 28.08,-14.28 7.17,-7.57 10.97,-15.49 11.39,-23.75 0.42,-8.26 -3.71,-16.49 -12.4,-24.72l-30.74 -29.1 20.18 0.1 -76.21 80.53zm43.45 262.42l26.28 -37.76 40.4 9.61 -19.05 8.04 135.09 -194.11 2.44 24.68 -26.15 -38.94 26.28 -37.76 104.41 69.86 29.45 20.5c31.98,22.25 51.44,45.7 58.39,70.35 6.95,24.64 1.76,49.43 -15.59,74.35 -15.07,21.65 -34.12,35.2 -57.16,40.65 -23.04,5.46 -50.35,-0 -81.93,-16.38l6.8 -8.16c9.99,6.58 17.45,13.18 22.38,19.79 4.93,6.61 8.07,13.37 9.42,20.29 1.35,6.92 1.61,14.19 0.78,21.84l-7.95 71.83 -11.95 -27.94 26.76 40.49 -26.28 37.77 -77.04 -53.62 15.8 -94.39c2.1,-11.62 3.51,-20.35 4.23,-26.21 0.71,-5.86 0.06,-10.42 -1.96,-13.7 -2.02,-3.27 -6.26,-6.97 -12.73,-11.11l-13.48 -8.82 19.18 -1.79 -51.78 74.4 0.81 -21.3 23.16 35.18 -26.28 37.76 -122.73 -85.42zm193.38 -64.42l1.05 -27.29 26.43 18.4c12.59,8.76 23.66,12.45 33.22,11.06 9.56,-1.38 18.1,-7.49 25.64,-18.31 5.96,-8.56 8.53,-16.95 7.72,-25.18 -0.81,-8.23 -6.13,-15.76 -15.95,-22.59l-34.74 -24.18 19.97 -2.92 -63.34 91.01zm196.12 329.58c-27.7,-15.82 -47.92,-34.69 -60.65,-56.62 -12.73,-21.93 -17.84,-46.39 -15.32,-73.38 2.52,-26.99 12.53,-55.81 30.02,-86.44 14.3,-25.04 30.01,-45.29 47.15,-60.76 17.14,-15.47 35.35,-26.18 54.63,-32.12 19.29,-5.94 39.21,-7.28 59.78,-4.01 20.56,3.26 41.64,11.06 63.21,23.38 21.58,12.32 38.73,26.36 51.46,42.1 12.73,15.75 21.16,32.84 25.3,51.27 4.13,18.43 4.04,38.07 -0.27,58.92 -4.31,20.85 -12.86,42.46 -25.63,64.84 -17.95,31.43 -39.16,55.43 -63.64,72.01 -24.48,16.58 -50.81,25.12 -79,25.62 -28.19,0.5 -57.2,-7.76 -87.04,-24.8zm41.36 -58.51c10.12,5.78 20.09,8.29 29.88,7.53 9.8,-0.77 20.28,-6.43 31.44,-17.02 11.16,-10.58 23.58,-27.86 37.27,-51.83 12.32,-21.58 20.28,-39.37 23.87,-53.39 3.59,-14.02 3.3,-25.41 -0.89,-34.16 -4.19,-8.75 -11.88,-16.32 -23.06,-22.71 -10.13,-5.78 -19.98,-8.32 -29.56,-7.61 -9.59,0.71 -19.69,6.33 -30.3,16.87 -10.61,10.55 -22.76,27.8 -36.45,51.77 -12.02,21.04 -19.99,38.57 -23.92,52.57 -3.93,14 -4.09,25.57 -0.47,34.7 3.62,9.13 11.02,16.89 22.21,23.28zm429.98 238.01l-12.51 -29.02 25.91 29.6 -19.18 41.82 -130.9 -60.02 19.18 -41.82 34.38 0.07 -12.7 7.84 8.08 -47.42 7.33 16.02 -93.68 -42.96 13 -5.17 -30.16 33.75 1.97 -8.72 19.92 22.8 -19.18 41.82 -116.27 -53.32 19.18 -41.82 38.11 0.77 -26.3 7.68 213.11 -213.07 89.2 38.37 -28.5 302.78zm-131.74 -164.18l-0.03 -13.18 64.82 29.72 -13.89 9.33 28.39 -146.93 19.89 9.62 -99.18 111.43zm157 208.06l14.78 -43.57 39.15 -2.27 -12.27 8.96 74.64 -220.04 6 20.98 -32.88 -27.67 14.78 -43.57 114.03 36.25 115.02 39.02 -29.86 89.47 -52.29 -17.74 2.09 -37.67 12.44 13.45 -79.73 -27.05 17.5 -8.64 -28.38 83.66 -9.08 -16.2 91.5 31.04 -21.43 63.18 -91.5 -31.04 17.51 -8.64 -31.04 91.5 -6.03 -15.16 37.97 28.43 -14.78 43.57 -148.14 -50.25zm468.03 -158.31l-39.32 8.98 11.39 -10.63 -50.55 222.07 -5.77 -14.06 32.18 22.43 -10.21 44.86 -145.8 -33.19 10.21 -44.86 37.71 -6.05 -10.28 9.93 50.55 -222.07 7.81 15.46 -34.21 -23.83 10.21 -44.86 146.31 30.95 -10.21 44.86zm119.91 311.01c-25.53,-3.47 -48.17,-12.81 -67.94,-28.03 -19.75,-15.22 -34.41,-36.09 -43.97,-62.62 -9.55,-26.53 -11.82,-58.33 -6.78,-95.41 4.83,-35.56 15.21,-65.26 31.14,-89.1 15.93,-23.84 36.21,-40.97 60.84,-51.4 24.63,-10.43 52.6,-13.52 83.91,-9.27 17.02,2.31 33.77,6.67 50.23,13.09 16.46,6.41 34.17,15.09 53.11,26.01l-17.58 91.87 -54.71 -7.43 -7.26 -52.53 13.65 15.78c-8.36,-4.54 -16.01,-8.06 -22.95,-10.55 -6.94,-2.49 -13.59,-4.16 -19.98,-5.03 -13.68,-1.86 -25.1,0.15 -34.25,6.03 -9.16,5.88 -16.53,15.17 -22.12,27.88 -5.59,12.7 -9.67,28.48 -12.23,47.33 -3.26,24.01 -3.27,44.05 -0.03,60.12 3.23,16.07 9.23,28.34 17.98,36.81 8.76,8.46 19.52,13.56 32.29,15.29 9.73,1.32 20.49,0.69 32.3,-1.89 11.8,-2.58 24.33,-7.14 37.61,-13.7l26.1 57.4c-22.16,12.78 -44.25,21.55 -66.25,26.3 -22,4.75 -43.04,5.76 -63.09,3.04zm334.99 -255.44l-37.57 14.69 9.69 -12.19 -17.24 227.1 -7.78 -13.05 35.13 17.43 -3.48 45.88 -149.1 -11.32 3.48 -45.87 36.4 -11.54 -8.7 11.34 17.24 -227.1 10 14.14 -37.35 -18.52 3.48 -45.88 149.28 9.03 -3.48 45.87zm169.68 285.82c-31.9,0.52 -58.91,-5.4 -81.05,-17.77 -22.14,-12.37 -39.01,-30.8 -50.61,-55.31 -11.59,-24.51 -17.69,-54.39 -18.26,-89.67 -0.47,-28.83 2.71,-54.26 9.56,-76.31 6.85,-22.05 17.05,-40.54 30.61,-55.49 13.56,-14.95 30.01,-26.26 49.37,-33.94 19.35,-7.68 41.45,-11.72 66.29,-12.13 24.84,-0.41 46.75,2.92 65.73,9.96 18.99,7.05 34.95,17.45 47.91,31.2 12.96,13.75 22.89,30.68 29.82,50.82 6.93,20.13 10.6,43.08 11.02,68.84 0.6,36.19 -5.41,67.66 -18,94.4 -12.6,26.74 -30.9,47.52 -54.89,62.33 -23.99,14.81 -53.16,22.5 -87.51,23.06zm5.73 -71.42c11.66,-0.19 21.5,-3.11 29.54,-8.77 8.04,-5.65 14.16,-15.88 18.37,-30.67 4.2,-14.79 6.08,-35.99 5.63,-63.59 -0.41,-24.84 -2.64,-44.21 -6.7,-58.1 -4.06,-13.89 -10.13,-23.53 -18.19,-28.92 -8.06,-5.39 -18.54,-7.98 -31.42,-7.77 -11.66,0.19 -21.42,3.04 -29.31,8.53 -7.89,5.5 -13.71,15.49 -17.45,29.97 -3.75,14.48 -5.4,35.52 -4.95,63.12 0.4,24.23 2.47,43.37 6.23,57.42 3.76,14.05 9.53,24.08 17.29,30.08 7.77,6.01 18.09,8.9 30.98,8.69zm351.96 -290.99l130.99 -20.11 6.19 45.59 -37.19 23.62 9.77 -20.36 37.82 278.57 -108.05 14.67 -130.48 -212.12 12.76 -1.73 24.76 182.37 -15.7 -16.44 42.74 10.45 6.19 45.59 -131.31 17.82 -6.19 -45.59 38.41 -21.46 -10.74 20.03 -31.88 -234.8 10.43 15.3 -37.48 -9.31 -6.19 -45.59 137.83 -21.04 127.41 206.51 -13.22 1.8 -23.65 -174.16 15.7 16.44 -42.74 -10.45 -6.19 -45.59zm492.15 175.97l-28.38 -13.9 38.93 5.63 12.64 44.24 -138.47 39.55 -12.64 -44.24 26.16 -22.31 -4.55 14.22 -24.71 -41.27 15.99 7.39 -99.1 28.31 6.51 -12.39 -0.95 45.25 -4.17 -7.9 29.96 4.36 12.63 44.24 -122.98 35.13 -12.64 -44.24 29.45 -24.21 -14.98 22.94 23.28 -300.45 92.71 -28.88 175.3 248.51zm-206.85 -39.01l-8.59 -9.99 68.57 -19.59 -4.48 16.12 -74.01 -130.07 21.36 -5.62 -2.85 149.15zm277.75 -289.02c23.02,-9.33 44.62,-14.44 64.78,-15.32 20.16,-0.89 38.65,2.46 55.46,10.05 16.81,7.59 31.92,19.17 45.35,34.74 13.42,15.57 24.92,35.16 34.48,58.76 13.82,34.11 19.48,65.25 16.99,93.4 -2.5,28.15 -12.6,52.84 -30.3,74.08 -17.71,21.24 -42.62,38.37 -74.75,51.38l-130.06 52.69 -17.28 -42.64 30.8 -29.36 -4.35 21.13 -88.97 -219.61 18.85 12.22 -43.57 0.28 -17.27 -42.64 112.14 -47.91 27.72 -11.23zm91.21 243.53c5.68,-2.3 11.36,-5.26 17.01,-8.87 5.65,-3.61 10.19,-9.18 13.6,-16.68 3.41,-7.51 4.29,-18.2 2.63,-32.09 -1.65,-13.89 -7.09,-32.21 -16.3,-54.95 -8.99,-22.18 -17.55,-38.64 -25.72,-49.4 -8.16,-10.76 -15.84,-17.66 -23.03,-20.7 -7.19,-3.04 -13.86,-3.98 -20,-2.82 -6.15,1.17 -11.64,2.73 -16.47,4.68l-38.38 15.55 7.61 -17.98 82.92 204.69 -17.98 -7.61 34.11 -13.82zm344.38 -78.32c-28.18,14.94 -54.94,21.93 -80.28,20.95 -25.34,-0.97 -48.74,-9.74 -70.19,-26.31 -21.46,-16.57 -40.45,-40.44 -56.98,-71.61 -13.5,-25.47 -22.21,-49.58 -26.11,-72.34 -3.91,-22.75 -3.21,-43.87 2.09,-63.34 5.3,-19.48 14.82,-37.02 28.59,-52.65 13.76,-15.63 31.61,-29.26 53.56,-40.9 21.95,-11.64 42.99,-18.62 63.1,-20.95 20.12,-2.33 39.06,-0.32 56.85,6.05 17.79,6.37 34.33,16.95 49.64,31.75 15.31,14.79 29,33.58 41.07,56.34 16.95,31.98 25.89,62.74 26.8,92.29 0.91,29.55 -5.96,56.36 -20.62,80.45 -14.66,24.09 -37.16,44.18 -67.51,60.27zm-27.31 -66.24c10.3,-5.46 17.75,-12.53 22.34,-21.22 4.6,-8.69 5.41,-20.58 2.44,-35.67 -2.96,-15.09 -10.92,-34.83 -23.85,-59.22 -11.64,-21.95 -22.42,-38.19 -32.34,-48.72 -9.93,-10.54 -19.7,-16.38 -29.34,-17.52 -9.63,-1.14 -20.14,1.3 -31.52,7.34 -10.29,5.46 -17.71,12.43 -22.24,20.91 -4.53,8.48 -5.19,20.02 -1.95,34.63 3.23,14.61 11.31,34.11 24.24,58.49 11.35,21.41 21.89,37.52 31.61,48.33 9.73,10.81 19.42,17.13 29.06,18.96 9.65,1.83 20.16,-0.28 31.54,-6.31zm145.43 -291.08c3.7,5.28 9.21,8.06 16.54,8.36 7.33,0.3 15.89,-0.84 25.71,-3.41 9.81,-2.57 20.48,-5.65 32.01,-9.24 11.53,-3.59 23.44,-6.5 35.73,-8.75 12.29,-2.25 24.57,-2.9 36.84,-1.95 12.28,0.94 24.15,4.51 35.61,10.71 11.46,6.2 21.95,16.08 31.46,29.65 14.08,20.09 20.41,40.2 18.96,60.31 -1.44,20.12 -8.73,39.37 -21.88,57.76 -13.14,18.39 -30.26,34.98 -51.36,49.77 -14.32,10.04 -29.87,18.98 -46.66,26.81 -16.8,7.84 -34.33,14.23 -52.59,19.17l-54.9 -82.32 44.08 -30.91 40.17 36.46 -14.97 -6.93c8.39,-1.39 16.93,-3.91 25.61,-7.56 8.68,-3.65 16.54,-7.94 23.57,-12.87 6.78,-4.76 12.4,-9.82 16.87,-15.2 4.47,-5.38 7.23,-10.78 8.3,-16.22 1.06,-5.43 -0.08,-10.53 -3.43,-15.3 -4.23,-6.03 -9.98,-9.3 -17.27,-9.8 -7.29,-0.51 -15.83,0.52 -25.65,3.09 -9.81,2.57 -20.33,5.73 -31.56,9.49 -11.23,3.75 -22.9,6.87 -35.01,9.37 -12.11,2.5 -24.26,3.33 -36.44,2.51 -12.19,-0.82 -23.91,-4.3 -35.16,-10.47 -11.25,-6.16 -21.8,-16.27 -31.66,-30.34 -13.56,-19.34 -20.12,-38.44 -19.66,-57.3 0.45,-18.86 6.37,-36.87 17.75,-54.03 11.38,-17.16 26.87,-32.61 46.46,-46.34 14.07,-9.86 29.9,-18.8 47.5,-26.83 17.6,-8.03 36.21,-14.61 55.83,-19.75l46.6 76.9 -45.21 31.69 -36.06 -29.79 12.56 1.87c-6.51,1.94 -12.89,4.45 -19.16,7.53 -6.26,3.08 -12.29,6.65 -18.07,10.7 -6.28,4.4 -11.61,9.08 -16,14.03 -4.4,4.95 -7.19,9.91 -8.4,14.88 -1.2,4.96 -0.22,9.71 2.95,14.22zm266.68 -309.71c18.84,-16.2 37.67,-27.95 56.48,-35.23 18.82,-7.28 37.41,-10.02 55.76,-8.2 18.35,1.82 36.37,7.96 54.07,18.43 17.7,10.47 34.85,25.35 51.45,44.66 24,27.91 39.31,55.6 45.94,83.07 6.63,27.47 4.95,54.09 -5.04,79.88 -9.99,25.78 -28.12,49.97 -54.4,72.58l-106.4 91.5 -30 -34.88 19.8 -37.67 2.63 21.41 -154.49 -179.66 21.77 5.56 -41.2 14.19 -30 -34.88 90.95 -81.24 22.68 -19.5zm164.26 201.6c4.65,-4 9.08,-8.62 13.28,-13.84 4.2,-5.23 6.72,-11.95 7.56,-20.15 0.83,-8.2 -1.75,-18.62 -7.76,-31.25 -6,-12.63 -17.01,-28.25 -33.01,-46.86 -15.6,-18.14 -28.98,-31 -40.16,-38.59 -11.17,-7.59 -20.65,-11.67 -28.44,-12.26 -7.79,-0.59 -14.4,0.65 -19.85,3.73 -5.46,3.07 -10.16,6.3 -14.11,9.7l-31.4 27 1.47 -19.47 144 167.45 -19.46 -1.47 27.91 -24zm252.32 -294.48l37.95 -40.1 69.88 67.4 -169.82 179.46 -33.42 -31.62 15.52 -39.16 5.13 20.69 -172.11 -162.87 20.29 4 -37.59 17.63 -33.42 -31.62 80.56 -88.47 84.44 -89.23 67.5 63.88 -37.95 40.1 -35.01 -18.56 20.07 -3.81 -58.51 61.82 -0.53 -19.51 65.17 61.67 -19.52 0.54 66.1 -69.85 46.78 44.27 -66.1 69.85 -2.21 -21.1 70.18 66.42 -19.51 0.54 62.3 -65.84 -1.67 21.85 -24.49 -38.38zm200.74 -285.6l31.91 -45.06 92 65.14 -139.58 197.14 -37.55 -26.58 9.52 -38.93 8.31 17.72 -193.39 -136.92 19.48 1.95 -33.55 21.91 -37.55 -26.58 85.33 -124.5 37.55 26.59 -7.91 40.63 -8.84 -16.97 185.88 131.6 -19.24 3.29 44.93 -63.46 4.73 18.01 -42.02 -44.97zm266.54 -299.88l-30.13 9.53 32.05 -22.8 39.68 23.29 -72.89 124.2 -39.68 -23.28 3.53 -34.2 6.52 13.43 -46.37 -12.81 16.67 -5.69 -52.16 88.89 -3.84 -13.46 30.54 33.4 -8.47 -2.83 24.69 -17.52 39.68 23.28 -64.74 110.32 -39.68 -23.29 4.6 -37.84 5 26.94 -190.56 -233.46 47.15 -84.89 298.38 58.8zm-176.59 114.56l-13.11 -1.3 36.09 -61.51 7.88 14.76 -143.33 -43.03 11.57 -18.82 100.89 109.89zm-4885.65 913.39l5.21 -26.81 23.31 22.22c11.1,10.58 21.48,15.92 31.14,16.01 9.66,0.09 19.03,-4.63 28.13,-14.19 7.19,-7.55 11.02,-15.45 11.47,-23.71 0.45,-8.25 -3.65,-16.51 -12.31,-24.76l-30.64 -29.2 20.19 0.17 -76.5 80.27zm268.97 323.91l43.41 34.11 -60.7 75.77 -194.28 -152.64 28.42 -36.18 40.42 11.86 -20.13 7 146.39 -186.32 -2.12 20.57 -21.01 -35.82 28.42 -36.18 95.49 72.1 96.6 75.9 -57.42 73.08 -43.41 -34.11 15.27 -36.57 5.63 19.64 -66.93 -52.59 19.38 -2.33 -55.43 70.55 -2.33 -19.38 75.61 59.41 -39.79 50.65 -75.61 -59.41 20.8 -4.13 -59.69 75.98 -2.33 -19.38 71.27 55.99 -21.92 0.33 35.97 -27.91zm208.96 139.61l-25.56 -16.39 22.95 -1.69 -41.22 64.3 -1.27 -21.04 33.5 38.97 -24.83 38.73 -133.63 -85.67 24.83 -38.73 43.55 8.79 -21.55 8.04 128.39 -200.25 3.13 24.96 -28.11 -37.15 24.83 -38.73 105.43 64.87 26.73 17.13c22.98,14.73 39.03,30.76 48.14,48.08 9.12,17.32 12.73,34.85 10.83,52.58 -1.9,17.73 -8.06,34.73 -18.49,51 -11.09,17.3 -25.3,30.78 -42.6,40.45 -17.31,9.67 -37.31,13.43 -59.98,11.29 -22.67,-2.15 -47.7,-11.99 -75.07,-29.55zm88.62 -126.28l-27.11 -17.39 19.07 -4.17 -62.09 96.83 -8.04 -21.55 25.56 16.39c11.88,7.62 23.04,9.67 33.49,6.16 10.44,-3.5 19.31,-10.94 26.59,-22.3 6.96,-10.85 9.9,-20.98 8.83,-30.41 -1.06,-9.43 -6.5,-17.28 -16.31,-23.57zm319.69 114.85l134.1 66.19 -20.99 40.94 -41.14 -1.45 18.89 -15.65 -70.55 137.56c-8.82,17.19 -18.43,31.57 -28.84,43.12 -10.41,11.55 -21.64,20.35 -33.71,26.41 -12.06,6.05 -24.76,9.62 -38.07,10.72 -13.32,1.1 -27.3,-0.21 -41.94,-3.93 -14.64,-3.72 -29.88,-9.63 -45.7,-17.75 -24.02,-12.32 -42.17,-25.33 -54.44,-39.04 -12.28,-13.71 -20.23,-27.44 -23.86,-41.2 -3.63,-13.76 -4.49,-26.87 -2.58,-39.33 1.91,-12.46 4.94,-23.75 9.09,-33.86 4.15,-10.11 7.9,-18.44 11.26,-24.99l73.49 -143.29 -1.27 23.65 -26.44 -30.11 21 -40.94 134.1 66.19 -21 40.94 -39.91 -0.82 17.45 -15.87 -73.49 143.29c-3.78,7.37 -6.79,14.09 -9.05,20.18 -2.26,6.08 -3.72,11.62 -4.39,16.62 -0.67,5 -0.27,9.6 1.19,13.8 1.47,4.2 4.04,8.1 7.7,11.7 3.66,3.6 8.64,7.02 14.92,10.23 6.55,3.36 12.46,5.44 17.73,6.25 5.27,0.81 10.25,0.52 14.93,-0.87 4.68,-1.39 9.09,-3.95 13.25,-7.68 4.15,-3.73 8.21,-8.63 12.19,-14.69 3.97,-6.06 8.13,-13.32 12.47,-21.78l70.55 -137.56 -3.11 22.19 -24.81 -28.24 20.99 -40.94zm-45.79 -49.86l-0.26 -54.94 136.25 -2.52 -0.97 74.48 -135.02 -17.02zm291.37 343.03l8.34 -6.11c20.55,8.09 38.09,17.14 52.61,27.14 14.52,10 24.36,21.87 29.5,35.6 5.14,13.73 3.9,30.29 -3.74,49.7 -7.64,19.41 -18.84,33.62 -33.6,42.65 -14.76,9.03 -32.58,13.05 -53.46,12.09 -20.88,-0.97 -44.17,-6.51 -69.85,-16.62l-136.15 -53.59 16.85 -42.81 42.12 -0.23 -17.28 12.49 86.79 -220.49 6.79 22.95 -33.32 -30.91 16.85 -42.81 110.01 40.84 35.54 13.99c20.83,8.2 38,17.76 51.5,28.68 13.5,10.92 22.35,23.63 26.52,38.13 4.18,14.5 2.56,31.18 -4.85,50.01 -10.33,26.26 -26.51,42.23 -48.52,47.9 -22.01,5.67 -49.56,2.82 -82.67,-8.56zm16.95 -102.11l-26.97 -10.62 17.9 -7.79 -32.86 83.48 -8.29 -16.62 18.84 7.42c5.43,2.13 11.44,4.01 18.06,5.62 6.61,1.62 13.07,1.11 19.38,-1.52 6.31,-2.62 11.49,-9.07 15.53,-19.35 3.71,-9.42 4.53,-16.75 2.48,-22.01 -2.05,-5.26 -5.43,-9.23 -10.15,-11.91 -4.71,-2.68 -9.36,-4.92 -13.92,-6.72zm-71.19 182.12c5.42,2.13 11.58,4.06 18.49,5.79 6.9,1.73 13.61,1.23 20.11,-1.47 6.51,-2.71 11.9,-9.49 16.17,-20.34 4.04,-10.27 4.88,-18.27 2.51,-23.98 -2.36,-5.71 -5.88,-9.98 -10.53,-12.8 -4.66,-2.82 -8.56,-4.85 -11.69,-6.09l-37.67 -14.83 18.57 -9.5 -35.56 90.34 -7.79 -17.9 27.4 10.78zm371.67 77.05l53.1 15.12 -30.86 108.42 -232.32 -66.13 12.59 -44.25 39.87 -3.96 -13.95 13.73 64.87 -227.9 4.63 19.02 -31.81 -24.36 12.6 -44.25 145.77 39.11 -12.59 44.25 -40.95 6.05 13.07 -13.98 -62.35 219.05 -9.5 -17.05 74.79 21.28 -15.41 10.45 28.45 -54.57zm292.8 -101.06l-39.35 8.87 11.42 -10.59 -51.17 221.93 -5.73 -14.07 32.11 22.52 -10.33 44.83 -145.71 -33.59 10.34 -44.83 37.73 -5.94 -10.31 9.9 51.17 -221.93 7.76 15.48 -34.15 -23.92 10.34 -44.83 146.23 31.35 -10.34 44.83zm142.91 313.7c-25.56,-3.26 -48.27,-12.42 -68.15,-27.48 -19.88,-15.06 -34.7,-35.81 -44.47,-62.26 -9.76,-26.45 -12.28,-58.23 -7.54,-95.35 4.54,-35.6 14.69,-65.38 30.42,-89.35 15.74,-23.96 35.88,-41.26 60.43,-51.89 24.55,-10.63 52.49,-13.94 83.83,-9.94 17.04,2.17 33.82,6.4 50.33,12.69 16.52,6.28 34.29,14.81 53.32,25.59l-16.85 92 -54.77 -6.99 -7.68 -52.46 13.77 15.67c-8.4,-4.47 -16.08,-7.93 -23.03,-10.36 -6.96,-2.43 -13.62,-4.06 -20.02,-4.87 -13.69,-1.75 -25.09,0.36 -34.2,6.3 -9.11,5.95 -16.41,15.3 -21.91,28.05 -5.49,12.75 -9.44,28.56 -11.85,47.43 -3.06,24.03 -2.92,44.07 0.44,60.12 3.36,16.04 9.46,28.27 18.28,36.66 8.83,8.39 19.63,13.4 32.41,15.04 9.74,1.24 20.5,0.53 32.28,-2.14 11.78,-2.67 24.28,-7.34 37.5,-14l26.56 57.19c-22.06,12.96 -44.08,21.89 -66.04,26.82 -21.96,4.93 -42.99,6.1 -63.07,3.54zm495.07 -13.39l-22.94 -21.74 35.48 16.99 -1.13 46 -143.96 -3.56 1.13 -46 31.63 -13.49 -8.59 12.21 -11.27 -46.76 13.06 11.83 -103.03 -2.55 9.91 -9.88 -14.41 42.9 -1.63 -8.79 27.29 13.1 -1.13 46 -127.87 -3.16 1.13 -46 35.33 -14.32 -21.14 17.43 111.84 -279.83 97.11 0.1 93.18 289.49zm-185.8 -98.94l-5.23 -12.09 71.29 1.76 -9.09 14.04 -31.83 -146.22 22.07 1 -47.22 141.51zm677.5 -170.33l-38.02 21.81 10.15 -24.3 18.31 240.86 -13.29 -16.99 40.64 12.6 3.49 45.87 -141.3 10.75 -3.49 -45.88 40.99 -19.26 -13.29 19.46 -13.99 -183.97 14.25 -0.62 -52.88 147.99 -57.17 6.66 -71.65 -141.29 13.3 -1.01 13.99 183.97 -10.43 -15.82 38.24 11.39 3.49 45.88 -130.29 9.9 -3.49 -45.87 38.27 -18.6 -10.57 18.8 -18.31 -240.86 13.64 21.57 -40.64 -12.59 -3.49 -45.88 142.5 -13.14 63.25 146.08 -10.55 0.8 44.74 -151.98 130.11 -12.2 3.49 45.87zm260.15 131.43l54.36 -9.68 16.1 95.74 -243.25 43.29 -8.06 -45.3 35.77 -22.26 -8.18 19.69 -41.52 -233.29 13.93 15.28 -40.71 -8.18 -8.06 -45.3 117.38 -23.22 120.95 -21.52 16.29 91.5 -54.36 9.67 -17.11 -35.74 18.4 8.87 -83.8 14.91 11.17 -16.01 15.72 88.34 -16.01 -11.17 94.67 -16.85 11.29 63.42 -94.67 16.85 10.77 -18.27 16.93 95.13 -16.01 -11.17 89.24 -15.88 -14.34 16.57 3.13 -45.42zm414.95 -58.73l-30.95 -11.29 36.46 5.43 12.57 44.26 -145.61 41.37 -12.57 -44.26 25 -21.45 6.87 12.4 -83.21 -60.55 20.55 -6.8 -39.46 100.17 -9.39 -17.9 35.82 6.56 12.57 44.26 -119.05 33.82 -12.57 -44.26 27.59 -24.11 -17.36 26.46 65.39 -155.37 5.4 22.38 -130.99 -99.1 23.12 7.3 -32.23 -2.33 -12.57 -44.26 142.33 -42.83 12.57 44.26 -23.22 20.95 0.08 -11.5 75.19 57.56 -20.73 1.11 32.29 -83.31 7.95 11.13 -32.41 -4.66 -12.57 -44.26 117.1 -35.66 12.57 44.26 -26.14 27.52 15.52 -24.5 -60.64 146.85 -3.38 -22 138.13 102.33zm104.29 -303.75l-27.38 29.62 3.4 -15.19 83.68 211.82 -12.7 -8.34 39.22 0.34 16.91 42.79 -139.08 54.94 -16.9 -42.79 27.71 -26.28 -2.88 14 -83.68 -211.82 15.17 8.35 -41.69 -0.35 -16.91 -42.79 138.23 -57.08 16.91 42.79zm296.06 178.47c-22.92,11.77 -46.84,17.07 -71.75,15.89 -24.91,-1.17 -48.87,-9.9 -71.88,-26.18 -23.02,-16.29 -43.07,-41.07 -60.16,-74.36 -16.39,-31.93 -24.88,-62.22 -25.46,-90.89 -0.58,-28.67 6.24,-54.33 20.48,-76.98 14.23,-22.65 35.4,-41.19 63.5,-55.62 15.28,-7.84 31.51,-13.85 48.68,-18.01 17.17,-4.16 36.66,-7.18 58.45,-9.06l38.16 85.4 -49.12 25.22 -36.01 -38.92 20.22 5.13c-9.46,1.06 -17.74,2.56 -24.86,4.48 -7.11,1.93 -13.53,4.36 -19.26,7.3 -12.28,6.3 -20.49,14.49 -24.64,24.55 -4.15,10.06 -4.88,21.9 -2.2,35.52 2.69,13.62 8.37,28.89 17.06,45.81 11.06,21.55 22.52,38 34.38,49.33 11.85,11.33 23.79,17.96 35.81,19.89 12.02,1.93 23.77,-0.05 35.23,-5.93 8.73,-4.49 17.2,-11.16 25.41,-20.03 8.2,-8.87 15.87,-19.79 23.01,-32.76l54.25 32.14c-10.86,23.17 -23.96,42.99 -39.28,59.48 -15.32,16.49 -31.99,29.35 -50,38.6zm401.54 -290.19l-31.18 -5.14 38.9 -5.83 24.85 38.72 -121.21 77.77 -24.85 -38.73 18.63 -28.9 -0.27 14.92 -35.54 -32.41 17.44 2.48 -86.75 55.66 2.67 -13.74 12.12 43.6 -6.27 -6.36 29.95 -4.45 24.85 38.72 -107.66 69.07 -24.85 -38.73 21.23 -31.66 -7.73 26.28 -64.26 -294.42 80.47 -54.36 239.46 187.48zm-209.32 22.23l-11.11 -7.09 60.02 -38.51 0.35 16.72 -108.33 -103.24 18.84 -11.54 40.23 143.65zm240.71 -400.64l102.77 -83.67 28.42 36.18 -20.1 39.2 -1.89 -22.51 173.68 221.05 -85.74 67.37 -219.93 -116.84 10.13 -7.96 113.7 144.71 -21.86 -6.23 42.15 -12.64 28.42 36.18 -104.2 81.87 -28.42 -36.18 22.25 -37.96 0.88 22.72 -146.39 -186.32 16.75 7.91 -37.03 10.96 -28.42 -36.18 108.2 -87.94 214.44 113.55 -10.49 8.25 -108.59 -138.2 21.86 6.23 -42.14 12.63 -28.43 -36.18zm539.63 -107.52l-31.59 0.89 37.08 -13.12 31.76 33.29 -104.19 99.41 -31.76 -33.29 12.79 -31.91 2.58 14.7 -41.07 -25.05 17.59 -0.89 -74.57 71.15 0 -13.99 20.2 40.5 -7.37 -5.05 28.55 -10.07 31.76 33.29 -92.54 88.3 -31.76 -33.29 14.82 -35.12 -2.59 27.27 -119.12 -276.81 68.65 -68.68 270.77 138.48zm-201.26 61.66l-12.25 -4.84 51.6 -49.23 3.53 16.35 -126 -80.73 16.29 -14.91 66.84 133.37zm-4826.47 -4260.56c14.29,-20.25 29.66,-36.18 46.1,-47.81 16.44,-11.62 33.76,-18.78 51.96,-21.48 18.2,-2.7 37.14,-1.14 56.81,4.69 19.67,5.83 39.88,16.06 60.63,30.7 30.01,21.17 51.56,44.24 64.65,69.22 13.09,24.97 17.94,51.14 14.55,78.51 -3.4,27.38 -15.07,55.19 -35.01,83.45l-80.71 114.4 -37.51 -26.47 10.01 -41.26 7.75 20.08 -193.16 -136.29 22.42 0.08 -36.42 23.75 -37.51 -26.47 68.25 -100.72 17.2 -24.38zm207.95 155.15c3.53,-5 6.69,-10.54 9.49,-16.62 2.79,-6.08 3.59,-13.19 2.41,-21.33 -1.18,-8.14 -6.22,-17.59 -15.1,-28.35 -8.89,-10.77 -23.33,-23.2 -43.34,-37.32 -19.51,-13.76 -35.59,-22.95 -48.24,-27.58 -12.66,-4.62 -22.82,-6.27 -30.5,-4.94 -7.68,1.33 -13.79,4.13 -18.31,8.43 -4.53,4.3 -8.29,8.56 -11.29,12.82l-23.82 33.76 -3.31 -19.19 180.03 127.02 -19.19 3.32 21.17 -30.01zm243.76 -332.84l37.75 -40.11 69.9 67.05 -168.94 179.51 -33.43 -31.46 15.38 -39.11 5.17 20.63 -172.15 -162.02 20.25 3.93 -37.46 17.7 -33.43 -31.46 80.12 -88.49 84 -89.25 67.52 63.55 -37.75 40.11 -34.98 -18.42 20.02 -3.86 -58.2 61.84 -0.59 -19.47 65.18 61.35 -19.46 0.59 65.75 -69.86 46.8 44.04 -65.75 69.86 -2.26 -21.04 70.2 66.06 -19.47 0.6 61.98 -65.85 -1.61 21.81 -24.54 -38.22zm198.48 -66.35l-27.71 -36.59 20.04 -33.6 0.53 15.14 -139.97 -184.78 20.69 6.79 -41.26 11.67 -27.72 -36.59 93.75 -73.89 96.6 -73.17 57.18 74.74 -43.91 33.26 -29.95 -22.82 18.07 -2.74 -66.96 50.72 2.66 -19.29 53.21 70.25 -18.46 -1.56 76.84 -58.2 40.19 53.06 -76.84 58.2 2.66 -19.3 58.2 76.84 -15.9 -3.5 44.73 -15.46 27.71 36.59 -124.41 94.23zm329.24 -357.04l46.12 -30.11 52.18 81.6 -206.4 134.76 -25.1 -38.44 24.14 -34.4 0.17 21.26 -129.24 -197.94 18.76 8.58 -40.57 8.39 -25.1 -38.44 98.68 -67.17 102.62 -67 50.7 77.64 -46.12 30.11 -29.68 -26.13 20.37 0.96 -71.11 46.43 4.01 -19.06 48.93 74.95 -19.06 -4 80.34 -52.45 35.13 53.81 -80.33 52.45 2.75 -20.98 52.7 80.71 -19.06 -4 75.72 -49.44 -6.7 20.82 -14.87 -42.92zm147.96 25.12l-21.95 -40.32 26.62 -31.74 -1.33 20.59 -112.8 -207.22 23.11 8.85 -46.42 5.93 -21.95 -40.32 108.97 -61.93 31.44 -17.12c34.14,-18.58 63.75,-25.47 88.84,-20.66 25.09,4.81 44.88,20.52 59.36,47.13 12.58,23.11 16.16,46.17 10.73,69.15 -5.43,22.99 -22.51,44.91 -51.22,65.77l-4.23 -9.71c10.33,-5.97 19.55,-9.69 27.65,-11.13 8.09,-1.45 15.53,-1.23 22.31,0.66 6.77,1.89 13.38,4.91 19.83,9.06l60.52 39.18 -30.26 -1.82 48.07 -5.79 21.95 40.32 -82.25 44.77 -77.14 -56.26c-9.43,-7.07 -16.59,-12.22 -21.49,-15.48 -4.91,-3.25 -9.27,-4.71 -13.09,-4.37 -3.82,0.33 -9.02,2.47 -15.59,6.4l-13.89 8.08 6.98 -17.9 43.24 79.42 -18.64 -10.24 41.73 -4.95 21.95 40.32 -131.03 71.33zm28.93 -201.29l-23.88 -13.14 28.22 -15.36c13.44,-7.32 21.68,-15.54 24.71,-24.69 3.04,-9.14 1.41,-19.49 -4.88,-31.05 -4.98,-9.14 -11.32,-15.19 -19.02,-18.14 -7.7,-2.95 -16.79,-1.57 -27.28,4.14l-37.09 20.19 6.32 -19.12 52.89 97.16zm272.03 41.56l-13.77 -43.79 32.24 -26.01 -5.28 19.95 -70.76 -225.08 20.97 13.13 -46.7 -3.12 -13.77 -43.79 118.86 -39.77 34.16 -10.74c37.07,-11.66 67.46,-12.71 91.15,-3.16 23.69,9.55 40.08,28.78 49.17,57.68 7.89,25.11 6.96,48.42 -2.8,69.92 -9.76,21.52 -30.74,39.74 -62.93,54.67l-2.29 -10.35c11.29,-3.87 21.05,-5.74 29.28,-5.6 8.23,0.14 15.48,1.79 21.77,4.95 6.28,3.16 12.19,7.39 17.71,12.72l51.84 50.1 -29.34 -7.62 48.29 3.58 13.77 43.79 -89.34 28.09 -64.85 -70.07c-7.89,-8.75 -13.92,-15.19 -18.11,-19.33 -4.19,-4.13 -8.19,-6.4 -12.01,-6.81 -3.81,-0.4 -9.33,0.68 -16.53,3.27l-15.19 5.25 10.29 -16.22 27.12 86.27 -16.32 -13.64 41.9 3.19 13.77 43.79 -142.32 44.74zm67.17 -191.94l-20.9 -17.49 30.65 -9.64c14.6,-4.59 24.27,-11.07 29.01,-19.46 4.74,-8.39 5.14,-18.85 1.19,-31.41 -3.12,-9.93 -8.18,-17.08 -15.16,-21.46 -6.99,-4.38 -16.18,-4.77 -27.57,-1.2l-40.28 12.67 9.88 -17.55 33.18 105.53zm392.13 64.95c-31.01,7.16 -58.6,7.01 -82.78,-0.45 -24.18,-7.45 -44.48,-21.92 -60.9,-43.42 -16.42,-21.49 -28.59,-49.38 -36.51,-83.67 -6.47,-28.03 -8.66,-53.51 -6.57,-76.45 2.09,-22.94 8.19,-43.11 18.3,-60.52 10.11,-17.41 23.81,-31.88 41.1,-43.4 17.28,-11.53 38,-20.08 62.15,-25.65 24.15,-5.58 46.23,-6.9 66.22,-3.97 19.99,2.92 37.74,9.74 53.24,20.45 15.51,10.71 28.74,25.17 39.69,43.37 10.95,18.2 19.32,39.82 25.1,64.87 8.12,35.19 8.82,67.14 2.1,95.86 -6.72,28.71 -20.24,52.8 -40.56,72.25 -20.32,19.45 -47.18,33.03 -80.58,40.74zm-9.29 -70.88c11.33,-2.62 20.33,-7.52 26.99,-14.71 6.66,-7.19 10.5,-18.44 11.53,-33.75 1.02,-15.31 -1.57,-36.39 -7.76,-63.22 -5.57,-24.15 -11.79,-42.58 -18.65,-55.29 -6.86,-12.71 -14.78,-20.85 -23.77,-24.43 -8.99,-3.58 -19.75,-3.93 -32.28,-1.03 -11.33,2.62 -20.27,7.43 -26.82,14.43 -6.55,7.01 -10.15,17.97 -10.79,32.88 -0.64,14.91 2.13,35.78 8.33,62.62 5.44,23.56 11.45,41.8 18.05,54.72 6.6,12.92 14.31,21.51 23.14,25.75 8.83,4.24 19.51,4.92 32.03,2.03zm565.21 -285.82l-37.94 21.75 10.13 -24.25 18.21 240.3 -13.26 -16.95 40.54 12.58 3.47 45.77 -140.98 10.68 -3.47 -45.77 40.9 -19.21 -13.26 19.42 -13.91 -183.54 14.22 -0.62 -52.8 147.63 -57.05 6.63 -71.45 -140.98 13.28 -1.01 13.91 183.54 -10.41 -15.78 38.15 11.38 3.47 45.77 -129.99 9.85 -3.47 -45.77 38.19 -18.55 -10.55 18.75 -18.21 -240.3 13.6 21.53 -40.54 -12.58 -3.47 -45.77 142.18 -13.07 63.06 145.76 -10.53 0.8 44.68 -151.62 129.82 -12.14 3.47 45.77zm218.41 298.81c-31.73,-2.4 -58.03,-10.77 -78.89,-25.08 -20.86,-14.32 -35.93,-34.18 -45.2,-59.59 -9.28,-25.4 -12.58,-55.66 -9.93,-90.75 2.17,-28.68 7.67,-53.66 16.5,-74.94 8.82,-21.28 20.65,-38.71 35.5,-52.32 14.84,-13.61 32.23,-23.34 52.16,-29.19 19.93,-5.86 42.25,-7.85 66.97,-5.98 24.72,1.87 46.18,7.18 64.39,15.93 18.21,8.74 33.12,20.54 44.74,35.38 11.61,14.84 19.93,32.58 24.97,53.22 5.03,20.64 6.58,43.77 4.64,69.4 -2.73,36.01 -11.58,66.72 -26.55,92.13 -14.96,25.42 -35.05,44.38 -60.24,56.89 -25.19,12.52 -54.88,17.48 -89.05,14.89zm12.24 -70.43c11.59,0.88 21.65,-1.12 30.15,-6 8.5,-4.88 15.52,-14.48 21.05,-28.78 5.53,-14.31 9.34,-35.2 11.43,-62.66 1.87,-24.72 1.43,-44.17 -1.33,-58.34 -2.76,-14.17 -7.9,-24.31 -15.42,-30.4 -7.52,-6.1 -17.69,-9.63 -30.5,-10.6 -11.59,-0.88 -21.57,1.05 -29.9,5.79 -8.34,4.74 -15.04,14.13 -20.09,28.18 -5.06,14.04 -8.62,34.79 -10.7,62.26 -1.83,24.11 -1.52,43.31 0.93,57.61 2.44,14.3 7.25,24.79 14.42,31.48 7.16,6.68 17.15,10.51 29.97,11.48zm401.78 -210.85c24.46,3.97 45.52,10.8 63.18,20.48 17.65,9.69 31.68,22.11 42.08,37.29 10.4,15.17 17.3,32.88 20.69,53.11 3.38,20.24 3.04,42.89 -1.03,67.96 -5.88,36.25 -17.17,65.73 -33.88,88.44 -16.7,22.71 -38.1,38.54 -64.2,47.48 -26.1,8.94 -56.22,10.64 -90.35,5.1l-138.2 -22.42 7.35 -45.31 41.47 -9.09 -14.65 15.76 37.85 -233.35 9.75 20.18 -37.3 -22.32 7.35 -45.31 120.44 17.21 29.45 4.78zm-48.33 254.91c6.04,0.98 12.4,1.39 19.1,1.24 6.69,-0.16 13.43,-2.55 20.23,-7.18 6.8,-4.63 13.09,-13.3 18.87,-26 5.78,-12.71 10.63,-31.14 14.55,-55.31 3.82,-23.56 5.04,-42.04 3.65,-55.44 -1.39,-13.4 -4.36,-23.26 -8.92,-29.58 -4.56,-6.32 -9.76,-10.58 -15.6,-12.76 -5.85,-2.19 -11.33,-3.7 -16.47,-4.53l-40.78 -6.61 15.8 -11.39 -35.28 217.49 -11.39 -15.8 36.25 5.88zm408.42 81.18l51.74 18.9 -34.1 90.66 -231.53 -84.59 15.76 -43.12 42 -1.27 -16.92 12.88 81.12 -222.04 4.36 20.16 -31.02 -27.46 15.75 -43.12 112.89 38.8 115.12 42.06 -31.82 87.1 -51.74 -18.9 3.16 -39.41 11.43 16.88 -79.77 -29.15 17.66 -8.2 -30.71 84.07 -8.21 -17.66 90.11 32.92 -22.05 60.36 -90.11 -32.92 18.45 -10.36 -33.08 90.54 -8.21 -17.66 84.94 31.04 -20.68 7.1 25.47 -37.61zm286.89 103.89l49.97 23.17 -47.3 102.03 -218.64 -101.36 19.31 -41.65 39.91 2.32 -15.89 11.35 99.43 -214.47 1.6 19.47 -27.55 -28.97 19.31 -41.65 137.56 61.25 -19.31 41.64 -41.3 -0.42 15.06 -11.74 -95.57 206.14 -6.7 -18.29 70.38 32.63 -16.81 7.89 36.54 -49.34zm311.02 -20.14l-40.15 -2.75 13.94 -6.86 -112.24 197.56 -1.47 -15.08 24.28 30.68 -22.67 39.91 -129.72 -73.69 22.68 -39.91 37.76 5.09 -12.68 6.52 112.24 -197.56 3 17.02 -25.81 -32.61 22.68 -39.91 130.85 71.69 -22.68 39.91zm119.87 119.43c-3.71,5.25 -4.46,11.36 -2.27,18.34 2.19,6.98 6.15,14.64 11.87,22.98 5.72,8.35 12.21,17.33 19.47,26.95 7.26,9.61 14.02,19.81 20.27,30.59 6.25,10.78 11,22.09 14.26,33.94 3.25,11.84 3.9,24.19 1.94,37.05 -1.95,12.85 -7.69,26.03 -17.22,39.53 -14.11,20 -30.86,32.72 -50.23,38.15 -19.37,5.43 -39.91,5.08 -61.61,-1.06 -21.7,-6.14 -43.05,-16.62 -64.05,-31.44 -14.25,-10.06 -27.89,-21.64 -40.91,-34.76 -13.03,-13.12 -24.94,-27.43 -35.74,-42.91l58.77 -79.31 43.88 30.96 -20.68 50.01 1.45 -16.39c4.13,7.41 9.38,14.58 15.74,21.49 6.35,6.92 13.03,12.85 20.03,17.79 6.75,4.76 13.41,8.33 19.96,10.71 6.56,2.38 12.57,3.16 18.02,2.33 5.46,-0.83 9.86,-3.62 13.21,-8.37 4.24,-6 5.36,-12.51 3.38,-19.52 -1.98,-7.01 -5.83,-14.69 -11.55,-23.04 -5.72,-8.35 -12.24,-17.16 -19.55,-26.44 -7.31,-9.28 -14.18,-19.19 -20.61,-29.71 -6.43,-10.53 -11.31,-21.65 -14.66,-33.38 -3.34,-11.72 -4.01,-23.9 -2.02,-36.54 1.99,-12.64 7.93,-25.96 17.81,-39.97 13.59,-19.25 29.31,-31.85 47.17,-37.78 17.86,-5.94 36.77,-6.46 56.72,-1.56 19.95,4.9 39.68,14.23 59.18,27.99 14,9.88 27.74,21.73 41.21,35.54 13.47,13.81 25.93,29.06 37.38,45.75l-56.49 69.7 -45 -31.75 15.81 -43.9 2.47 12.42c-4.01,-5.46 -8.53,-10.61 -13.53,-15.45 -5,-4.85 -10.39,-9.3 -16.14,-13.36 -6.25,-4.41 -12.45,-7.85 -18.58,-10.3 -6.13,-2.46 -11.73,-3.41 -16.8,-2.86 -5.06,0.55 -9.19,3.07 -12.36,7.57zm65.66 349.65l30.55 -34.26 46.67 20.09 -27.27 6.43 155.82 -174.71 4.54 22.5 -46.24 -41.25 26.68 0.43 -49.46 33.39 -41.11 -36.67 71.19 -79.82 209.31 186.68 -71.19 79.82 -41.11 -36.67 25.78 -49.59 5.22 23.11 -46.24 -41.24 22.87 1.95 -155.82 174.71 3.97 -27.21 24.59 43.46 -30.55 34.26 -118.19 -105.41zm414.54 344.9l-1.19 -31.5 13.46 36.86 -32.9 32.01 -100.2 -102.96 32.9 -32.01 31.96 12.44 -14.64 2.73 24.58 -41.21 1.06 17.54 -71.71 -73.68 13.96 -0.13 -40.21 20.55 4.97 -7.4 10.33 28.38 -32.9 32.01 -89 -91.45 32.9 -32.01 35.18 14.44 -27.24 -2.32 274.98 -121.56 69.19 67.81 -135.49 271.49zm-63.49 -200.18l4.71 -12.27 49.63 50.99 -16.28 3.67 79.3 -126.49 15.04 16.11 -132.39 67.99zm314.68 210.86c-5.28,3.66 -8.08,9.15 -8.42,16.45 -0.33,7.31 0.76,15.86 3.28,25.66 2.51,9.8 5.53,20.46 9.05,31.98 3.53,11.53 6.37,23.42 8.55,35.69 2.18,12.26 2.76,24.52 1.76,36.77 -1,12.24 -4.63,24.06 -10.87,35.47 -6.24,11.4 -16.15,21.82 -29.73,31.23 -20.12,13.96 -40.21,20.16 -60.27,18.62 -20.06,-1.54 -39.23,-8.92 -57.52,-22.12 -18.28,-13.2 -34.74,-30.37 -49.4,-51.49 -9.94,-14.33 -18.78,-29.89 -26.51,-46.69 -7.74,-16.79 -14.02,-34.31 -18.86,-52.56l82.4 -54.36 30.61 44.13 -36.57 39.89 6.98 -14.9c1.34,8.38 3.81,16.91 7.42,25.59 3.59,8.67 7.83,16.54 12.72,23.58 4.71,6.79 9.74,12.42 15.08,16.91 5.35,4.49 10.73,7.27 16.14,8.36 5.41,1.09 10.5,-0.03 15.28,-3.34 6.04,-4.19 9.33,-9.91 9.87,-17.18 0.55,-7.27 -0.43,-15.8 -2.95,-25.6 -2.51,-9.8 -5.62,-20.32 -9.3,-31.54 -3.69,-11.23 -6.74,-22.88 -9.17,-34.98 -2.43,-12.09 -3.2,-24.22 -2.33,-36.37 0.88,-12.16 4.42,-23.82 10.63,-35.02 6.2,-11.19 16.35,-21.67 30.43,-31.44 19.36,-13.43 38.45,-19.87 57.26,-19.33 18.82,0.55 36.75,6.54 53.82,17.99 17.05,11.44 32.39,26.97 46,46.58 9.76,14.08 18.61,29.92 26.53,47.52 7.93,17.59 14.4,36.19 19.43,55.79l-76.96 46.11 -31.39 -45.26 29.91 -35.82 -1.94 12.51c-1.9,-6.5 -4.37,-12.89 -7.42,-19.15 -3.04,-6.26 -6.57,-12.29 -10.58,-18.08 -4.36,-6.29 -9,-11.64 -13.92,-16.04 -4.92,-4.41 -9.85,-7.23 -14.8,-8.45 -4.95,-1.23 -9.68,-0.27 -14.21,2.87zm-5158.08 158.39l-33.97 17.02 33.4 -26.28 47.06 24.48 -80.53 154.82 -47.06 -24.48 1.79 -37.94 15.83 4.05 -116.61 21.86 10.56 -22.61 52.77 112.35 -22.44 -6.29 33.85 -24.85 47.06 24.48 -65.85 126.59 -47.06 -24.48 1.62 -42.21 8.45 35.49 -78.54 -177.77 23.04 13.18 -186.74 31.41 24.42 -13.61 -27.45 25.19 -47.06 -24.48 76.71 -153.23 47.06 24.48 -0.82 36.05 -9.58 -9.17 107.75 -17.49 -15.47 18.26 -44.31 -93 15.63 2.15 -29.56 23.48 -47.06 -24.48 62.75 -126.4 47.06 24.48 2.39 43.7 -8.26 -32.4 75.15 167.04 -21.12 -14.57 195.1 -34.84zm-117.75 -325.53l-5.39 46.19 -7.16 -16.46 221.83 140.48 -17.49 0.85 36.76 -26.32 44.81 28.38 -92.23 145.65 -44.81 -28.38 7.96 -43.31 6.83 15 -221.83 -140.48 19.81 -2.53 -39.08 27.99 -44.81 -28.38 90 -147.07 44.81 28.38zm472.5 -166.25l-36.61 10.15 37.84 -19.34 41.46 33.09 -108.87 136.39 -41.45 -33.09 9.07 -36.88 14.76 7.03 -118.63 -1.03 14.72 -20.15 30.12 120.42 -20.8 -10.5 38.01 -17.85 41.46 33.09 -89.02 111.52 -41.46 -33.09 9.73 -41.1 1.45 36.45 -42.78 -189.58 20.06 17.38 -189.3 -5.19 26.58 -8.64 -31.79 19.42 -41.46 -33.09 104.82 -135.56 41.46 33.09 -7.75 35.21 -7.63 -10.84 109.11 3.61 -18.71 14.93 -25.54 -99.79 14.92 5.12 -33.53 17.35 -41.46 -33.09 85.95 -111.92 41.45 33.09 -6.08 43.34 -1.86 -33.38 41.53 178.4 -17.92 -18.37 198.16 3.43zm247.49 -172.35c-21.4,20.6 -46.05,34.38 -73.94,41.36 -27.89,6.96 -57.25,5.28 -88.06,-5.06 -30.81,-10.34 -61.18,-31.05 -91.1,-62.14 -28.69,-29.81 -48.11,-60.44 -58.27,-91.9 -10.15,-31.46 -11.13,-62.05 -2.93,-91.78 8.19,-29.73 25.42,-57.23 51.66,-82.48 14.27,-13.73 30.19,-25.75 47.77,-36.04 17.58,-10.29 38.09,-20.09 61.52,-29.4l70.47 81.63 -45.87 44.14 -52.68 -31.02 24.03 -1.04c-10.09,4.31 -18.73,8.7 -25.95,13.2 -7.21,4.49 -13.49,9.31 -18.84,14.46 -11.47,11.04 -17.82,22.79 -19.06,35.27 -1.23,12.48 1.88,25.79 9.36,39.94 7.49,14.15 18.83,29.12 34.03,44.92 19.37,20.13 37.48,34.48 54.33,43.06 16.85,8.57 32.22,11.93 46.14,10.07 13.91,-1.87 26.22,-7.94 36.92,-18.24 8.16,-7.85 15.29,-18.03 21.41,-30.54 6.12,-12.52 10.96,-27.11 14.53,-43.8l70.57 17.48c-4.31,29.18 -12.19,55.41 -23.64,78.71 -11.45,23.29 -25.58,43.03 -42.4,59.21zm258.13 -218.42c-29.1,22.48 -58.14,35.65 -87.12,39.5 -28.98,3.85 -57.28,-1.55 -84.9,-16.19 -27.62,-14.63 -53.86,-38.04 -78.72,-70.22 -20.33,-26.31 -34.93,-52 -43.81,-77.09 -8.89,-25.09 -12.22,-49.21 -10.01,-72.37 2.22,-23.17 9.61,-44.97 22.19,-65.41 12.58,-20.45 30.2,-39.43 52.87,-56.94 22.66,-17.51 45.2,-29.56 67.6,-36.14 22.39,-6.58 44.32,-7.99 65.77,-4.23 21.45,3.76 42.32,12.55 62.61,26.37 20.29,13.82 39.51,32.48 57.67,55.99 25.52,33.02 41.68,66.22 48.49,99.62 6.8,33.4 4.24,65.21 -7.7,95.44 -11.94,30.24 -33.59,57.46 -64.93,81.67zm-43.97 -69.93c10.63,-8.22 17.71,-17.71 21.24,-28.47 3.52,-10.76 2.13,-24.43 -4.2,-41 -6.32,-16.56 -19.21,-37.44 -38.67,-62.63 -17.51,-22.66 -32.94,-39.01 -46.27,-49.04 -13.34,-10.03 -25.59,-14.75 -36.75,-14.17 -11.17,0.58 -22.63,5.42 -34.38,14.5 -10.63,8.22 -17.7,17.58 -21.19,28.1 -3.5,10.52 -1.97,23.76 4.55,39.72 6.53,15.96 19.52,36.54 38.97,61.72 17.08,22.11 32.21,38.35 45.37,48.74 13.17,10.39 25.41,15.67 36.73,15.86 11.32,0.19 22.85,-4.25 34.61,-13.34zm235.98 -510.27l131.63 -77.58 26.13 46.16 -29.71 41.2 1.75 -25.98 159.69 282.03 -109.39 61.94 -230.46 -171.24 12.92 -7.32 104.54 184.63 -23.84 -10.89 50.23 -7.1 26.13 46.16 -132.94 75.27 -26.14 -46.16 31.93 -39.42 -2.93 26.05 -134.6 -237.72 17.72 11.92 -44.11 6.07 -26.14 -46.16 138.56 -81.5 224.75 166.55 -13.39 7.58 -99.84 -176.33 23.84 10.89 -50.23 7.1 -26.13 -46.16zm456.03 188.85l-220.25 -257.72 29.34 7.73 -49.06 0.12 -19.62 -49.28 160.16 -66.64 19.62 49.28 -35.02 33.94 2.21 -28.86 147.36 196.53 -13.79 5.5 -17.67 -240.76 15.55 16.08 -43.93 -1.35 -19.63 -49.28 139.47 -58.4 19.62 49.28 -35.21 33.44 15.51 -25.59 12.78 343.19 -107.43 42.79zm442.55 -268.17l61.16 -17.65 30.01 107.83 -273.68 78.98 -14.71 -50.96 38.32 -29.83 -7 23.55 -75.75 -262.47 17.82 15.84 -47.67 -4.46 -14.71 -50.96 131.77 -40.79 136.07 -39.27 29.71 102.94 -61.16 17.65 -23.93 -38.92 22.17 7.96 -94.29 27.21 10.88 -19.71 28.68 99.38 -19.71 -10.88 106.52 -30.74 20.59 71.35 -106.52 30.74 10.14 -22.25 30.89 107.02 -19.71 -10.88 100.4 -28.97 -14.45 20.73 -1.89 -52.46zm298.31 -325.19l150.13 -28.38 8.95 52.28 -41.91 28.7 10.45 -23.85 54.66 319.46 -123.91 21.2 -158.79 -239.21 14.64 -2.51 35.79 209.14 -18.74 -18.32 49.66 10.34 8.95 52.29 -150.58 25.76 -8.95 -52.28 43.4 -26.26 -11.58 23.51 -46.07 -269.26 12.63 17.21 -43.56 -9.23 -8.95 -52.29 157.98 -29.72 155.01 232.87 -15.16 2.59 -34.18 -199.72 18.74 18.32 -49.66 -10.34 -8.95 -52.28zm412.82 348.62c-29.69,0.54 -57.14,-6.13 -82.33,-20 -25.18,-13.87 -45.55,-35.08 -61.09,-63.62 -15.55,-28.55 -23.72,-64.39 -24.49,-107.52 -0.75,-41.37 5.86,-77.03 19.82,-106.99 13.96,-29.96 34.06,-53.05 60.29,-69.26 26.24,-16.21 57.56,-24.65 93.98,-25.3 19.8,-0.36 39.64,1.67 59.53,6.09 19.89,4.41 41.58,11.18 65.09,20.31l-3.89 107.77 -63.64 1.15 -17.5 -58.58 18.32 15.59c-10.33,-3.71 -19.65,-6.37 -28,-7.98 -8.34,-1.62 -16.22,-2.36 -23.65,-2.23 -15.92,0.29 -28.57,4.58 -37.97,12.89 -9.4,8.3 -16.17,20.19 -20.32,35.65 -4.14,15.46 -6.01,34.15 -5.62,56.07 0.5,27.93 4.01,50.77 10.52,68.52 6.51,17.75 15.5,30.67 26.96,38.77 11.46,8.1 24.62,12.02 39.47,11.75 11.32,-0.2 23.47,-2.81 36.47,-7.82 13,-5.01 26.48,-12.41 40.45,-22.22l39.83 60.82c-23.02,18.45 -46.63,32.32 -70.87,41.6 -24.24,9.28 -48.02,14.13 -71.36,14.55zm377.09 -321.8l-43.31 16.93 11.17 -14.05 -19.88 261.82 -8.96 -15.05 40.5 20.1 -4.01 52.89 -171.9 -13.05 4.01 -52.89 41.97 -13.31 -10.04 13.07 19.88 -261.82 11.53 16.3 -43.06 -21.36 4.01 -52.89 172.11 10.41 -4.02 52.89zm183.07 354.68c-36.25,-6.2 -65.6,-18.67 -88.04,-37.4 -22.45,-18.73 -37.63,-43.21 -45.55,-73.45 -7.92,-30.24 -8.46,-65.39 -1.6,-105.48 5.6,-32.77 14.64,-60.91 27.09,-84.43 12.46,-23.52 27.96,-42.3 46.5,-56.35 18.55,-14.05 39.61,-23.36 63.17,-27.94 23.56,-4.58 49.46,-4.45 77.7,0.38 28.23,4.83 52.35,13.26 72.36,25.3 20,12.03 35.88,27.21 47.63,45.55 11.75,18.33 19.41,39.64 22.96,63.93 3.56,24.29 2.83,51.07 -2.18,80.35 -7.04,41.14 -20.54,75.51 -40.51,103.13 -19.98,27.61 -45.13,47.26 -75.47,58.93 -30.34,11.67 -65.03,14.16 -104.07,7.48zm21.71 -79.7c13.25,2.27 25.02,1.05 35.33,-3.64 10.31,-4.69 19.43,-14.97 27.34,-30.84 7.92,-15.87 14.56,-39.49 19.93,-70.86 4.83,-28.23 6.43,-50.65 4.78,-67.25 -1.64,-16.6 -6.46,-28.82 -14.45,-36.64 -7.99,-7.83 -19.31,-12.99 -33.94,-15.49 -13.25,-2.27 -24.92,-1.13 -35.03,3.42 -10.11,4.55 -18.83,14.63 -26.16,30.24 -7.33,15.61 -13.69,39.1 -19.05,70.46 -4.71,27.54 -6.43,49.66 -5.17,66.39 1.27,16.72 5.66,29.31 13.18,37.77 7.52,8.46 18.6,13.95 33.24,16.45zm2.3 -331.11l-19.27 -60.34 148.99 -49.85 24.68 82.25 -154.39 27.94zm521.48 141.1l147.93 38.25 -14.17 51.12 -50.14 8.12 19.62 -17.13 -86.57 312.32 -121.15 -33.58 -41.81 -284.06 14.31 3.97 -56.68 204.46 -9.16 -24.55 40.54 30.5 -14.17 51.12 -147.22 -40.81 14.17 -51.12 50.45 -5.28 -20.49 16.34 72.97 -263.25 4.1 20.95 -35.48 -26.9 14.17 -51.11 155.59 40.37 41.09 276.7 -14.82 -4.11 54.13 -195.26 9.16 24.55 -40.54 -30.5 14.17 -51.12zm519.55 204.08l140.03 61.12 -22.06 48.24 -50.8 0.1 22.08 -13.82 -134.8 294.74 -114.33 -52.29 3.56 -287.09 13.51 6.17 -88.25 192.96 -5.16 -25.69 35.21 36.52 -22.06 48.24 -138.93 -63.54 22.06 -48.24 50.66 2.75 -22.82 12.9 113.62 -248.43 0.74 21.34 -30.79 -32.17 22.06 -48.23 147.26 64.43 -3.1 279.72 -13.99 -6.4 84.27 -184.27 5.16 25.69 -35.21 -36.52 22.06 -48.24zm330.34 571.85l-9.8 -35.09 25.02 37.82 -28.38 44.81 -140.27 -88.83 28.38 -44.81 39.27 5.4 -15.73 7 16.57 -52.93 5.9 19.44 -100.38 -63.57 15.66 -3.9 -39.67 33.9 3.6 -9.65 19.22 29.13 -28.38 44.81 -124.58 -78.9 28.38 -44.81 43.43 6.78 -31.24 4.71 276.43 -210.45 95.98 57.64 -79.39 341.51zm-125.11 -207.94l2 -15.06 69.46 43.99 -17.31 8.5 55.17 -163.46 21.23 14.07 -130.55 111.96zm248.19 377.76c-23.38,-18.32 -40.46,-40.81 -51.25,-67.46 -10.78,-26.65 -13.2,-55.96 -7.25,-87.91 5.95,-31.95 22.23,-64.91 48.85,-98.86 25.52,-32.57 53.15,-56.06 82.89,-70.5 29.74,-14.43 59.89,-19.66 90.47,-15.69 30.58,3.97 60.21,17.2 88.87,39.67 15.59,12.22 29.7,26.31 42.34,42.28 12.64,15.97 25.2,34.91 37.68,56.83l-71.02 81.15 -50.1 -39.27 23.38 -56.49 4.37 23.65c-5.67,-9.39 -11.23,-17.34 -16.68,-23.86 -5.45,-6.52 -11.1,-12.06 -16.94,-16.65 -12.52,-9.82 -25.05,-14.47 -37.58,-13.96 -12.53,0.51 -25.28,5.46 -38.25,14.84 -12.97,9.38 -26.21,22.7 -39.74,39.95 -17.23,21.99 -28.92,41.92 -35.07,59.79 -6.15,17.88 -7.33,33.57 -3.55,47.1 3.78,13.52 11.52,24.86 23.21,34.02 8.9,6.98 19.98,12.63 33.22,16.94 13.24,4.32 28.37,7.08 45.4,8.29l-7.48 72.32c-29.5,-0.21 -56.57,-4.35 -81.23,-12.45 -24.66,-8.1 -46.17,-19.34 -64.54,-33.74zm487.78 -2.71l-44.28 -14.19 17.53 -3.85 -180.61 190.59 2.54 -17.33 18.74 41.15 -36.48 38.5 -125.14 -118.58 36.49 -38.5 40.96 16.16 -16.03 3.81 180.61 -190.59 -1.34 19.92 -19.94 -43.74 36.49 -38.5 126.96 116.66 -36.49 38.5zm-88.55 397.08c-24,-27.86 -38.69,-56.17 -44.07,-84.9 -5.38,-28.74 -1.49,-57.28 11.66,-85.64 13.15,-28.35 35.13,-55.8 65.94,-82.34 25.19,-21.7 50.07,-37.64 74.66,-47.84 24.58,-10.2 48.49,-14.82 71.74,-13.83 23.25,0.98 45.41,7.21 66.5,18.69 21.08,11.47 40.97,28.07 59.66,49.77 18.69,21.7 31.92,43.57 39.68,65.59 7.76,22.02 10.33,43.84 7.72,65.45 -2.61,21.62 -10.29,42.93 -23.01,63.92 -12.72,20.99 -30.34,41.18 -52.85,60.56 -31.62,27.23 -63.92,45.13 -96.91,53.71 -32.99,8.57 -64.89,7.7 -95.72,-2.63 -30.82,-10.32 -59.16,-30.49 -85.01,-60.5zm67.49 -47.62c8.77,10.18 18.62,16.75 29.56,19.69 10.94,2.95 24.52,0.83 40.72,-6.36 16.21,-7.19 36.37,-21.17 60.49,-41.94 21.7,-18.69 37.21,-34.96 46.52,-48.81 9.31,-13.85 13.37,-26.34 12.2,-37.45 -1.18,-11.12 -6.62,-22.31 -16.31,-33.56 -8.77,-10.18 -18.49,-16.74 -29.18,-19.67 -10.69,-2.93 -23.83,-0.71 -39.43,6.65 -15.59,7.36 -35.45,21.43 -59.56,42.19 -21.17,18.23 -36.59,34.2 -46.26,47.9 -9.67,13.7 -14.3,26.2 -13.89,37.52 0.41,11.31 5.46,22.59 15.16,33.85zm520.51 207.13l85.18 126.84 -44.54 28.8 -42.88 -27.23 26.04 0.22 -272.16 175.97 -68.26 -105.57 157.42 -240.12 8.06 12.47 -178.17 115.2 9.47 -24.44 10.04 49.73 -44.54 28.8 -82.95 -128.29 44.54 -28.8 41.22 29.56 -26.17 -1.4 229.4 -148.33 -10.86 18.39 -8.65 -43.67 44.54 -28.8 89.5 133.53 -153.06 234.14 -8.35 -12.92 170.16 -110.02 -9.47 24.44 -10.04 -49.73 44.54 -28.8zm-24.83 657.96l11.1 -34.7 0.11 45.35 -48.34 21.84 -68.35 -151.31 48.34 -21.84 29.84 26.1 -16.99 -2.8 42.93 -35.11 -5.75 19.48 -48.92 -108.28 15.22 5.34 -51.77 6.51 8.31 -6.08 0.05 34.9 -48.34 21.84 -60.71 -134.39 48.34 -21.84 32.55 29.53 -28.68 -13.24 346.6 -23.87 48.5 100.9 -254.03 241.66zm9.78 -242.48l9.95 -11.48 33.85 74.92 -19.13 -2.41 135.94 -106.23 10 23.42 -170.6 21.78zm154.94 460.8l19.6 60.56 -123.64 40.01 -85.74 -264.95 50.46 -16.33 29.38 35.65 -22.1 -4.56 259.91 -84.11 -15.25 16.64 2.93 -46.1 50.46 -16.33 56.09 164.72 -50.46 16.33 -32.07 -35.34 21.78 3.54 -249.82 80.84 10.24 -20.04 27.6 85.29 -19.89 -8.06 70.52 -7.77z"/>
  </g>
 </g>
</svg>
